<svg xmlns="http://www.w3.org/2000/svg" viewBox="0 0 1200 720" role="img" aria-label="Mapa da rota QIMO Bordeaux">
  <defs>
    <linearGradient id="paper" x1="0" x2="1" y1="0" y2="1">
      <stop offset="0" stop-color="#fbf2d9"/>
      <stop offset="0.58" stop-color="#ead8ad"/>
      <stop offset="1" stop-color="#d3b879"/>
    </linearGradient>
    <linearGradient id="sea" x1="0" x2="1" y1="0" y2="0">
      <stop offset="0" stop-color="#87b8c3"/>
      <stop offset="0.62" stop-color="#bdd5d5"/>
      <stop offset="1" stop-color="#ead8ad" stop-opacity="0"/>
    </linearGradient>
    <radialGradient id="wineGlow" cx="68%" cy="52%" r="44%">
      <stop offset="0" stop-color="#9f3b50" stop-opacity=".18"/>
      <stop offset=".62" stop-color="#9f3b50" stop-opacity=".05"/>
      <stop offset="1" stop-color="#9f3b50" stop-opacity="0"/>
    </radialGradient>
    <filter id="softShadow" x="-20%" y="-20%" width="140%" height="140%">
      <feDropShadow dx="0" dy="12" stdDeviation="16" flood-color="#2b1b13" flood-opacity=".18"/>
    </filter>
    <marker id="arrow" viewBox="0 0 10 10" refX="8" refY="5" markerWidth="6" markerHeight="6" orient="auto-start-reverse">
      <path d="M0 0 10 5 0 10z" fill="#9f3b50"/>
    </marker>
  </defs>
  <rect width="1200" height="720" fill="url(#paper)"/>
  <rect width="1200" height="720" fill="url(#wineGlow)"/>
  <path d="M0 0h286c-30 82-45 171-42 267 3 117 36 217 23 328-7 60-30 100-52 125H0z" fill="url(#sea)"/>
  <path d="M250 64c61 90 86 182 80 295-5 109 35 215 18 298" fill="none" stroke="#e9dcbb" stroke-width="80" stroke-linecap="round" opacity=".85"/>
  <path d="M328 65c62 102 70 191 49 303-17 92 19 185 78 274" fill="none" stroke="#5f8890" stroke-width="30" stroke-linecap="round" opacity=".38"/>
  <path d="M478 651c-50-124-30-235 27-336 38-69 55-135 27-219" fill="none" stroke="#5f8890" stroke-width="13" stroke-linecap="round" opacity=".36"/>
  <path d="M493 373c94-70 164-97 222-41 63 61 118 103 213 109" fill="none" stroke="#5f8890" stroke-width="12" stroke-linecap="round" opacity=".31"/>
  <path d="M395 196c64-1 119-39 137-100" fill="none" stroke="#9f3b50" stroke-width="8" stroke-linecap="round" stroke-dasharray="1 20" marker-end="url(#arrow)" opacity=".95"/>
  <path d="M532 96c-16 94-28 189-39 277" fill="none" stroke="#9f3b50" stroke-width="8" stroke-linecap="round" stroke-dasharray="1 20" marker-end="url(#arrow)" opacity=".95"/>
  <path d="M493 373c57 75 70 154 66 228" fill="none" stroke="#9f3b50" stroke-width="8" stroke-linecap="round" stroke-dasharray="1 20" marker-end="url(#arrow)" opacity=".95"/>
  <path d="M493 373c102-78 181-99 246-42 56 49 91 94 166 108" fill="none" stroke="#9f3b50" stroke-width="8" stroke-linecap="round" stroke-dasharray="1 20" marker-end="url(#arrow)" opacity=".95"/>
  <path d="M843 155c-75 44-111 98-128 177" fill="none" stroke="#9f3b50" stroke-width="7" stroke-linecap="round" stroke-dasharray="1 18" marker-end="url(#arrow)" opacity=".86"/>

  <g font-family="Georgia, 'Times New Roman', serif" fill="#3b3a31">
    <text x="666" y="115" font-size="74" font-weight="500" fill="#8d3147">Bordeaux</text>
    <text x="666" y="178" font-size="60" font-weight="500" fill="#8d3147">Wine Central</text>
    <text x="310" y="333" font-size="54" fill="#8d3147" opacity=".62">MÉDOC</text>
    <text x="649" y="354" font-size="82" fill="#2f493f" opacity=".78">BLAYE</text>
    <text x="814" y="506" font-size="45" fill="#8d3147" opacity=".62">ST-ÉMILION</text>
    <text x="519" y="621" font-size="42" fill="#a08339" opacity=".72">SAUTERNES</text>
  </g>

  <g font-family="Arial, Helvetica, sans-serif" font-size="22" fill="#342722">
    <g filter="url(#softShadow)">
      <circle cx="392" cy="196" r="10" fill="#9f3b50" stroke="#fff" stroke-width="5"/>
      <rect x="172" y="150" width="190" height="58" rx="29" fill="#fff8e7" opacity=".94"/>
      <text x="338" y="186" text-anchor="end" font-weight="700">Médoc</text>
    </g>
    <g filter="url(#softShadow)">
      <circle cx="493" cy="373" r="12" fill="#2f493f" stroke="#fff" stroke-width="5"/>
      <rect x="277" y="341" width="185" height="64" rx="32" fill="#fff8e7" opacity=".94"/>
      <text x="438" y="381" text-anchor="end" font-weight="700">Bordeaux</text>
    </g>
    <g filter="url(#softShadow)">
      <circle cx="559" cy="601" r="10" fill="#c3a860" stroke="#fff" stroke-width="5"/>
      <rect x="583" y="568" width="188" height="58" rx="29" fill="#fff8e7" opacity=".94"/>
      <text x="607" y="604" font-weight="700">Sauternes</text>
    </g>
    <g filter="url(#softShadow)">
      <circle cx="651" cy="331" r="10" fill="#2f493f" stroke="#fff" stroke-width="5"/>
      <rect x="675" y="298" width="136" height="58" rx="29" fill="#fff8e7" opacity=".94"/>
      <text x="699" y="334" font-weight="700">Blaye</text>
    </g>
    <g filter="url(#softShadow)">
      <circle cx="712" cy="387" r="9" fill="#c3a860" stroke="#fff" stroke-width="5"/>
      <rect x="735" y="356" width="132" height="54" rx="27" fill="#fff8e7" opacity=".94"/>
      <text x="758" y="390" font-weight="700">Bourg</text>
    </g>
    <g filter="url(#softShadow)">
      <circle cx="843" cy="155" r="9" fill="#c3a860" stroke="#fff" stroke-width="5"/>
      <rect x="866" y="123" width="154" height="55" rx="28" fill="#fff8e7" opacity=".94"/>
      <text x="890" y="158" font-weight="700">Cognac</text>
    </g>
    <g filter="url(#softShadow)">
      <circle cx="864" cy="436" r="10" fill="#2f493f" stroke="#fff" stroke-width="5"/>
      <rect x="887" y="404" width="164" height="56" rx="28" fill="#fff8e7" opacity=".94"/>
      <text x="910" y="439" font-weight="700">Libourne</text>
    </g>
    <g filter="url(#softShadow)">
      <circle cx="955" cy="478" r="10" fill="#9f3b50" stroke="#fff" stroke-width="5"/>
      <rect x="977" y="446" width="188" height="58" rx="29" fill="#fff8e7" opacity=".94"/>
      <text x="1001" y="482" font-weight="700">Saint-Émilion</text>
    </g>
  </g>

  <g font-family="Arial, Helvetica, sans-serif" font-size="22" font-weight="700" fill="#2f493f" opacity=".48">
    <text x="64" y="390" transform="rotate(-90 64 390)" letter-spacing="8">OCEANO ATLÂNTICO</text>
    <text x="258" y="120" transform="rotate(56 258 120)">GIRONDE</text>
    <text x="456" y="675">GARONNE</text>
    <text x="805" y="581">DORDOGNE</text>
  </g>
  <rect x="38" y="38" width="1124" height="644" rx="18" fill="none" stroke="#fff8e7" stroke-width="2" opacity=".55"/>
</svg>
